REM DIRINDEX 1\2\3,1\2\4,1\2\5,1\2\6
REM DIRNAME cjc157,folder01,folder02,folder03,folder04,folder05
TITLE ""
FILE "133 133.mp3" MP3
  TRACK 01 AUDIO
    TITLE "0:"
    INDEX 01 00:00:00
  TRACK 02 AUDIO
    TITLE "3:cjc157_4976"
    INDEX 01 00:00:09
  TRACK 03 AUDIO
    TITLE "0:"
    INDEX 01 00:01:15
  TRACK 04 AUDIO
    TITLE "4:cjc157_4977"
    INDEX 01 00:01:62
  TRACK 05 AUDIO
    TITLE "0:"
    INDEX 01 00:02:71
  TRACK 06 AUDIO
    TITLE "5:cjc157_4978"
    INDEX 01 00:03:43
  TRACK 07 AUDIO
    TITLE "0:"
    INDEX 01 00:05:69
  TRACK 08 AUDIO
    TITLE "3:cjc157_4979"
    INDEX 01 00:06:41
  TRACK 09 AUDIO
    TITLE "0:"
    INDEX 01 00:07:62
  TRACK 10 AUDIO
    TITLE "4:cjc157_4980"
    INDEX 01 00:08:34
  TRACK 11 AUDIO
    TITLE "0:"
    INDEX 01 00:09:45
  TRACK 12 AUDIO
    TITLE "5:cjc157_4981"
    INDEX 01 00:10:19
  TRACK 13 AUDIO
    TITLE "0:"
    INDEX 01 00:12:46
  TRACK 14 AUDIO
    TITLE "3:cjc157_4982"
    INDEX 01 00:13:16
  TRACK 15 AUDIO
    TITLE "0:"
    INDEX 01 00:14:58
  TRACK 16 AUDIO
    TITLE "4:cjc157_4983"
    INDEX 01 00:15:28
  TRACK 17 AUDIO
    TITLE "0:"
    INDEX 01 00:16:57
  TRACK 18 AUDIO
    TITLE "5:cjc157_4984"
    INDEX 01 00:17:27
  TRACK 19 AUDIO
    TITLE "0:"
    INDEX 01 00:19:62
  TRACK 20 AUDIO
    TITLE "5:cjc157_4985"
    INDEX 01 00:20:36
  TRACK 21 AUDIO
    TITLE "0:"
    INDEX 01 00:22:50
  TRACK 22 AUDIO
    TITLE "3:cjc157_4986"
    INDEX 01 00:23:24
  TRACK 23 AUDIO
    TITLE "0:"
    INDEX 01 00:24:65
  TRACK 24 AUDIO
    TITLE "4:cjc157_4987"
    INDEX 01 00:25:35
  TRACK 25 AUDIO
    TITLE "0:"
    INDEX 01 00:26:44
  TRACK 26 AUDIO
    TITLE "5:cjc157_4988"
    INDEX 01 00:27:14
  TRACK 27 AUDIO
    TITLE "0:"
    INDEX 01 00:30:22
  TRACK 28 AUDIO
    TITLE "5:cjc157_4989"
    INDEX 01 00:30:65
  TRACK 29 AUDIO
    TITLE "0:"
    INDEX 01 00:33:56
  TRACK 30 AUDIO
    TITLE "5:cjc157_4990"
    INDEX 01 00:34:26
  TRACK 31 AUDIO
    TITLE "0:"
    INDEX 01 00:36:36
  TRACK 32 AUDIO
    TITLE "5:cjc157_4991"
    INDEX 01 00:37:08
  TRACK 33 AUDIO
    TITLE "0:"
    INDEX 01 00:39:00
  TRACK 34 AUDIO
    TITLE "3:cjc157_4992"
    INDEX 01 00:39:45
  TRACK 35 AUDIO
    TITLE "0:"
    INDEX 01 00:40:72
  TRACK 36 AUDIO
    TITLE "4:cjc157_4993"
    INDEX 01 00:41:40
  TRACK 37 AUDIO
    TITLE "0:"
    INDEX 01 00:42:59
  TRACK 38 AUDIO
    TITLE "5:cjc157_4994"
    INDEX 01 00:43:25
  TRACK 39 AUDIO
    TITLE "0:"
    INDEX 01 00:46:72
  TRACK 40 AUDIO
    TITLE "3:cjc157_4995"
    INDEX 01 00:47:40
  TRACK 41 AUDIO
    TITLE "0:"
    INDEX 01 00:48:55
  TRACK 42 AUDIO
    TITLE "4:cjc157_4996"
    INDEX 01 00:49:27
  TRACK 43 AUDIO
    TITLE "0:"
    INDEX 01 00:50:33
  TRACK 44 AUDIO
    TITLE "5:cjc157_4997"
    INDEX 01 00:51:03
  TRACK 45 AUDIO
    TITLE "0:"
    INDEX 01 00:53:04
  TRACK 46 AUDIO
    TITLE "3:cjc157_4998"
    INDEX 01 00:53:51
  TRACK 47 AUDIO
    TITLE "0:"
    INDEX 01 00:54:64
  TRACK 48 AUDIO
    TITLE "4:cjc157_4999"
    INDEX 01 00:55:34
  TRACK 49 AUDIO
    TITLE "0:"
    INDEX 01 00:56:45
  TRACK 50 AUDIO
    TITLE "5:cjc157_5000"
    INDEX 01 00:57:15
  TRACK 51 AUDIO
    TITLE "0:"
    INDEX 01 00:59:30
  TRACK 52 AUDIO
    TITLE "3:cjc157_5001"
    INDEX 01 01:00:00
  TRACK 53 AUDIO
    TITLE "0:"
    INDEX 01 01:01:50
  TRACK 54 AUDIO
    TITLE "4:cjc157_5002"
    INDEX 01 01:02:22
  TRACK 55 AUDIO
    TITLE "0:"
    INDEX 01 01:03:29
  TRACK 56 AUDIO
    TITLE "5:cjc157_5003"
    INDEX 01 01:04:01
  TRACK 57 AUDIO
    TITLE "0:"
    INDEX 01 01:06:14
  TRACK 58 AUDIO
    TITLE "5:cjc157_5004"
    INDEX 01 01:06:59
  TRACK 59 AUDIO
    TITLE "0:"
    INDEX 01 01:08:58
  TRACK 60 AUDIO
    TITLE "3:cjc157_5005"
    INDEX 01 01:09:30
  TRACK 61 AUDIO
    TITLE "0:"
    INDEX 01 01:10:59
  TRACK 62 AUDIO
    TITLE "4:cjc157_5006"
    INDEX 01 01:11:25
  TRACK 63 AUDIO
    TITLE "0:"
    INDEX 01 01:12:50
  TRACK 64 AUDIO
    TITLE "5:cjc157_5007"
    INDEX 01 01:13:18
  TRACK 65 AUDIO
    TITLE "0:"
    INDEX 01 01:15:01
  TRACK 66 AUDIO
    TITLE "5:cjc157_5008"
    INDEX 01 01:15:52
  TRACK 67 AUDIO
    TITLE "0:"
    INDEX 01 01:18:06
  TRACK 68 AUDIO
    TITLE "3:cjc157_5009"
    INDEX 01 01:18:49
  TRACK 69 AUDIO
    TITLE "0:"
    INDEX 01 01:19:64
  TRACK 70 AUDIO
    TITLE "4:cjc157_5010"
    INDEX 01 01:20:36
  TRACK 71 AUDIO
    TITLE "0:"
    INDEX 01 01:21:47
  TRACK 72 AUDIO
    TITLE "5:cjc157_5011"
    INDEX 01 01:22:15
  TRACK 73 AUDIO
    TITLE "0:"
    INDEX 01 01:24:08
  TRACK 74 AUDIO
    TITLE "5:cjc157_5012"
    INDEX 01 01:24:53
  TRACK 75 AUDIO
    TITLE "0:"
    INDEX 01 01:26:58
